<svg xmlns="http://www.w3.org/2000/svg" style="display:none">
  <!-- Iconos de Phosphor (MIT License) — adaptados como sprite -->

  <!-- yarn / ovillo -->
  <symbol id="i-yarn" viewBox="0 0 256 256" fill="none" stroke="currentColor" stroke-width="14" stroke-linecap="round" stroke-linejoin="round">
    <circle cx="128" cy="128" r="96"/>
    <path d="M48 128c0 44.18 35.82 96 80 96s80-51.82 80-96"/>
    <path d="M128 32c44.18 0 96 35.82 96 80"/>
    <path d="M32 128c0-44.18 51.82-80 96-80"/>
    <path d="M170 86c-12 12-28 36-42 56s-30 36-42 48"/>
    <path d="M210 130c-18 0-46 8-72 22s-52 22-70 22"/>
  </symbol>

  <!-- hand / mano -->
  <symbol id="i-hand" viewBox="0 0 256 256" fill="none" stroke="currentColor" stroke-width="14" stroke-linecap="round" stroke-linejoin="round">
    <path d="M168 152V40a16 16 0 0 0-32 0v80"/>
    <path d="M136 120V32a16 16 0 0 0-32 0v88"/>
    <path d="M104 120V48a16 16 0 0 0-32 0v144"/>
    <path d="M72 152v-32a16 16 0 0 0-32 0v40c0 48 32 80 80 80h16c48 0 80-32 80-80v-72a16 16 0 0 0-32 0v32"/>
  </symbol>

  <!-- leaf / hoja -->
  <symbol id="i-leaf" viewBox="0 0 256 256" fill="none" stroke="currentColor" stroke-width="14" stroke-linecap="round" stroke-linejoin="round">
    <path d="M40 216c0-72 64-160 184-160 0 96-56 184-152 184-32 0-56-16-56-48"/>
    <path d="M40 216c40-40 88-72 144-88"/>
  </symbol>

  <!-- tree / árbol navidad -->
  <symbol id="i-tree" viewBox="0 0 256 256" fill="none" stroke="currentColor" stroke-width="14" stroke-linecap="round" stroke-linejoin="round">
    <path d="M48 200l40-56h-24l40-56h-24l48-72 48 72h-24l40 56h-24l40 56z"/>
    <path d="M128 200v32"/>
    <path d="M104 232h48"/>
  </symbol>

  <!-- flower / flor -->
  <symbol id="i-flower" viewBox="0 0 256 256" fill="none" stroke="currentColor" stroke-width="14" stroke-linecap="round" stroke-linejoin="round">
    <circle cx="128" cy="128" r="32"/>
    <path d="M128 96V40a32 32 0 0 1 32 32"/>
    <path d="M128 96V40a32 32 0 0 0-32 32"/>
    <path d="M160 128h56a32 32 0 0 1-32 32"/>
    <path d="M160 128h56a32 32 0 0 0-32-32"/>
    <path d="M128 160v56a32 32 0 0 1-32-32"/>
    <path d="M128 160v56a32 32 0 0 0 32-32"/>
    <path d="M96 128H40a32 32 0 0 1 32-32"/>
    <path d="M96 128H40a32 32 0 0 0 32 32"/>
  </symbol>

  <!-- key / llave -->
  <symbol id="i-key" viewBox="0 0 256 256" fill="none" stroke="currentColor" stroke-width="14" stroke-linecap="round" stroke-linejoin="round">
    <circle cx="80" cy="176" r="40"/>
    <path d="M108 148L240 16"/>
    <path d="M192 64l32 32"/>
    <path d="M160 96l24 24"/>
  </symbol>

  <!-- bear / animal -->
  <symbol id="i-bear" viewBox="0 0 256 256" fill="none" stroke="currentColor" stroke-width="14" stroke-linecap="round" stroke-linejoin="round">
    <circle cx="128" cy="148" r="76"/>
    <circle cx="68" cy="76" r="28"/>
    <circle cx="188" cy="76" r="28"/>
    <circle cx="104" cy="140" r="6" fill="currentColor"/>
    <circle cx="152" cy="140" r="6" fill="currentColor"/>
    <path d="M112 176c4 6 10 10 16 10s12-4 16-10"/>
  </symbol>

  <!-- crown / personaje -->
  <symbol id="i-crown" viewBox="0 0 256 256" fill="none" stroke="currentColor" stroke-width="14" stroke-linecap="round" stroke-linejoin="round">
    <path d="M40 200h176"/>
    <path d="M48 168l-16-72 56 32 40-72 40 72 56-32-16 72z"/>
    <circle cx="128" cy="56" r="8"/>
    <circle cx="32" cy="96" r="8"/>
    <circle cx="224" cy="96" r="8"/>
  </symbol>

  <!-- pencil / diseño -->
  <symbol id="i-pencil" viewBox="0 0 256 256" fill="none" stroke="currentColor" stroke-width="14" stroke-linecap="round" stroke-linejoin="round">
    <path d="M96 216H48a8 8 0 0 1-8-8v-40l128-128 56 56-128 128"/>
    <path d="M136 64l56 56"/>
    <path d="M40 168l48 48"/>
  </symbol>

  <!-- palette / selección -->
  <symbol id="i-palette" viewBox="0 0 256 256" fill="none" stroke="currentColor" stroke-width="14" stroke-linecap="round" stroke-linejoin="round">
    <path d="M128 24a104 104 0 1 0 0 208c12 0 20-8 20-20s-8-20-20-20a16 16 0 0 1 0-32h32a48 48 0 0 0 48-48 88 88 0 0 0-80-88"/>
    <circle cx="84" cy="124" r="10" fill="currentColor"/>
    <circle cx="116" cy="80" r="10" fill="currentColor"/>
    <circle cx="172" cy="100" r="10" fill="currentColor"/>
  </symbol>

  <!-- gift / regalo -->
  <symbol id="i-gift" viewBox="0 0 256 256" fill="none" stroke="currentColor" stroke-width="14" stroke-linecap="round" stroke-linejoin="round">
    <rect x="32" y="80" width="192" height="48" rx="4"/>
    <path d="M48 128v88a8 8 0 0 0 8 8h144a8 8 0 0 0 8-8v-88"/>
    <path d="M128 80v144"/>
    <path d="M180 80c20 0 36-12 36-28s-16-28-36-28-52 56-52 56 32 0 52 0z"/>
    <path d="M76 80c-20 0-36-12-36-28s16-28 36-28 52 56 52 56-32 0-52 0z"/>
  </symbol>

  <!-- heart -->
  <symbol id="i-heart" viewBox="0 0 256 256" fill="none" stroke="currentColor" stroke-width="14" stroke-linecap="round" stroke-linejoin="round">
    <path d="M128 224S24 168 24 96a56 56 0 0 1 104-29 56 56 0 0 1 104 29c0 72-104 128-104 128z"/>
  </symbol>

  <!-- thread / hilo -->
  <symbol id="i-thread" viewBox="0 0 256 256" fill="none" stroke="currentColor" stroke-width="14" stroke-linecap="round" stroke-linejoin="round">
    <path d="M40 128c40-32 80-32 120 0s80 32 56-48"/>
    <path d="M40 80c40-32 80-32 120 0"/>
    <path d="M40 176c40-32 80-32 120 0s80 32 56-48"/>
  </symbol>

  <!-- box / empaque -->
  <symbol id="i-box" viewBox="0 0 256 256" fill="none" stroke="currentColor" stroke-width="14" stroke-linecap="round" stroke-linejoin="round">
    <path d="M40 80l88-48 88 48v96l-88 48-88-48z"/>
    <path d="M40 80l88 48 88-48"/>
    <path d="M128 128v96"/>
    <path d="M88 56l88 48"/>
  </symbol>

  <!-- sparkle -->
  <symbol id="i-sparkle" viewBox="0 0 256 256" fill="none" stroke="currentColor" stroke-width="14" stroke-linecap="round" stroke-linejoin="round">
    <path d="M128 32v40m0 112v40m96-96h-40M72 128H32m152.6-67.6l-28.4 28.4m-56.4 56.4l-28.4 28.4m113.2 0l-28.4-28.4m-56.4-56.4L71.4 60.4"/>
  </symbol>

  <!-- chat / WhatsApp UI -->
  <symbol id="i-chat" viewBox="0 0 256 256" fill="none" stroke="currentColor" stroke-width="14" stroke-linecap="round" stroke-linejoin="round">
    <path d="M48 32h160a16 16 0 0 1 16 16v128a16 16 0 0 1-16 16h-92l-44 32v-32H48a16 16 0 0 1-16-16V48a16 16 0 0 1 16-16z"/>
  </symbol>

  <!-- star / testimonios -->
  <symbol id="i-star" viewBox="0 0 256 256" fill="currentColor">
    <path d="M239 97.34a12 12 0 0 0-9.91-8.18l-58.31-8.5-26-52.86a12 12 0 0 0-21.6 0l-26 52.86-58.31 8.5a12 12 0 0 0-6.65 20.45l42.18 41.16-9.95 58.05a12 12 0 0 0 17.41 12.65L128 192l52.18 27.43a12 12 0 0 0 17.41-12.65l-9.95-58.05 42.18-41.16a12 12 0 0 0 3.18-12.27z"/>
  </symbol>

  <!-- diamond -->
  <symbol id="i-diamond" viewBox="0 0 256 256" fill="currentColor">
    <path d="M128 24L24 128l104 104 104-104z"/>
  </symbol>

  <!-- arrow right -->
  <symbol id="i-arrow-right" viewBox="0 0 256 256" fill="none" stroke="currentColor" stroke-width="20" stroke-linecap="round" stroke-linejoin="round">
    <path d="M48 128h160M152 72l56 56-56 56"/>
  </symbol>
</svg>
